<svg width="14" height="14" viewBox="0 0 14 14" fill="none" xmlns="http://www.w3.org/2000/svg">
<g clip-path="url(#clip0_93_2)">
<path d="M13.4167 6.41666H0.583326C0.26116 6.41666 -7.62939e-06 6.67782 -7.62939e-06 6.99999C-7.62939e-06 7.32216 0.26116 7.58332 0.583326 7.58332H13.4167C13.7388 7.58332 14 7.32216 14 6.99999C14 6.67782 13.7388 6.41666 13.4167 6.41666Z" fill="black"/>
<path d="M13.4167 2.33334H0.583326C0.26116 2.33334 -7.62939e-06 2.59451 -7.62939e-06 2.91668C-7.62939e-06 3.23884 0.26116 3.50001 0.583326 3.50001H13.4167C13.7388 3.50001 14 3.23884 14 2.91668C14 2.59451 13.7388 2.33334 13.4167 2.33334Z" fill="black"/>
<path d="M13.4167 10.5H0.583326C0.26116 10.5 -7.62939e-06 10.7612 -7.62939e-06 11.0833C-7.62939e-06 11.4055 0.26116 11.6667 0.583326 11.6667H13.4167C13.7388 11.6667 14 11.4055 14 11.0833C14 10.7612 13.7388 10.5 13.4167 10.5Z" fill="black"/>
</g>
<defs>
<clipPath id="clip0_93_2">
<rect width="14" height="14" fill="white"/>
</clipPath>
</defs>
</svg>
