<svg width="16" height="16" viewBox="0 0 16 16" fill="none" xmlns="http://www.w3.org/2000/svg">
<path d="M4.568 15.6253C4.0592 15.6231 3.56419 15.4597 3.154 15.1587C2.73481 14.8638 2.42201 14.4414 2.26213 13.9545C2.10226 13.4675 2.10385 12.942 2.26667 12.456L3.04667 10.0433L0.993332 8.54199C0.581628 8.24119 0.275611 7.81788 0.119067 7.33262C-0.0374772 6.84736 -0.0365279 6.32502 0.121779 5.84034C0.280086 5.35565 0.587639 4.93346 1.00043 4.63415C1.41323 4.33485 1.91012 4.17378 2.42 4.17399H4.93333L5.69667 1.79399C5.85333 1.30662 6.16063 0.881537 6.57432 0.579977C6.98801 0.278417 7.48673 0.115936 7.99867 0.115936C8.5106 0.115936 9.00933 0.278417 9.42301 0.579977C9.8367 0.881537 10.144 1.30662 10.3007 1.79399V1.79399L11.0667 4.17399H13.58C14.0898 4.17392 14.5866 4.33509 14.9993 4.63445C15.412 4.9338 15.7194 5.356 15.8777 5.84066C16.0359 6.32531 16.0368 6.84759 15.8802 7.33278C15.7237 7.81797 15.4177 8.24122 15.006 8.54199L12.9533 10.0433L13.7333 12.456C13.8906 12.9427 13.8894 13.4667 13.73 13.9527C13.5706 14.4386 13.2612 14.8615 12.8463 15.1605C12.4313 15.4595 11.9322 15.6192 11.4208 15.6166C10.9093 15.614 10.4119 15.4492 10 15.146L8 13.6753L6 15.1467C5.58617 15.4553 5.08425 15.6231 4.568 15.6253V15.6253ZM2.42 6.17399C2.332 6.17398 2.24626 6.20179 2.17501 6.25343C2.10376 6.30508 2.05067 6.37793 2.02331 6.46156C1.99595 6.5452 1.99572 6.63534 2.02267 6.71911C2.04961 6.80288 2.10234 6.87599 2.17333 6.92799L4.81067 8.85532C4.98049 8.9795 5.10682 9.15406 5.1717 9.35419C5.23657 9.55432 5.23668 9.7698 5.172 9.96999L4.172 13.07C4.14425 13.1541 4.14397 13.2448 4.17119 13.3291C4.19841 13.4133 4.25173 13.4868 4.32343 13.5387C4.39513 13.5907 4.4815 13.6185 4.57005 13.6181C4.6586 13.6177 4.74473 13.5892 4.816 13.5367L7.40867 11.6293C7.58042 11.5029 7.78809 11.4348 8.00133 11.4348C8.21458 11.4348 8.42224 11.5029 8.594 11.6293L11.1867 13.536C11.2578 13.589 11.3441 13.618 11.4329 13.6186C11.5216 13.6192 11.6083 13.5914 11.6801 13.5393C11.752 13.4872 11.8054 13.4135 11.8325 13.329C11.8595 13.2445 11.8589 13.1535 11.8307 13.0693L10.8307 9.96932C10.766 9.76914 10.7661 9.55365 10.831 9.35352C10.8958 9.1534 11.0222 8.97883 11.192 8.85466L13.8287 6.92732C13.8996 6.87536 13.9523 6.80231 13.9793 6.7186C14.0062 6.6349 14.0061 6.54482 13.9788 6.46121C13.9515 6.37761 13.8985 6.30476 13.8274 6.25306C13.7563 6.20136 13.6706 6.17346 13.5827 6.17332H10.3333C10.1215 6.17327 9.91522 6.10597 9.74413 5.98113C9.57304 5.85628 9.446 5.68034 9.38133 5.47866L8.4 2.40466C8.37297 2.32052 8.31993 2.24714 8.24853 2.19508C8.17712 2.14302 8.09103 2.11497 8.00267 2.11497C7.9143 2.11497 7.82821 2.14302 7.7568 2.19508C7.6854 2.24714 7.63236 2.32052 7.60533 2.40466L6.61667 5.47932C6.5521 5.68068 6.42537 5.85639 6.25468 5.98121C6.08399 6.10602 5.87812 6.17352 5.66667 6.17399H2.42Z" fill="black"/>
</svg>
