<svg width="16" height="16" viewBox="0 0 16 16" fill="none" xmlns="http://www.w3.org/2000/svg">
<path d="M0.884673 8.26666L3.25801 9.99999L2.35667 12.7913C2.21101 13.2242 2.20917 13.6927 2.35141 14.1267C2.49366 14.5608 2.77237 14.9372 3.14601 15.2C3.51324 15.4712 3.95827 15.6165 4.41478 15.6142C4.87128 15.6119 5.31484 15.4622 5.67934 15.1873L8.00001 13.4793L10.3213 15.1853C10.6879 15.455 11.1305 15.6014 11.5856 15.6036C12.0406 15.6058 12.4847 15.4637 12.8539 15.1977C13.223 14.9316 13.4983 14.5554 13.6402 14.123C13.7821 13.6906 13.7832 13.2244 13.6433 12.7913L12.742 9.99999L15.1153 8.26666C15.4814 7.999 15.7536 7.62249 15.8929 7.19092C16.0322 6.75934 16.0316 6.29478 15.8911 5.86358C15.7506 5.43238 15.4775 5.05661 15.1107 4.78993C14.7439 4.52325 14.3022 4.3793 13.8487 4.37866H10.9333L10.0487 1.62132C9.90955 1.1873 9.63619 0.808666 9.26799 0.540033C8.89979 0.271401 8.45579 0.126648 8.00001 0.126648C7.54423 0.126648 7.10023 0.271401 6.73203 0.540033C6.36383 0.808666 6.09046 1.1873 5.95134 1.62132L5.06667 4.37866H2.15401C1.7005 4.3793 1.2588 4.52325 0.891993 4.78993C0.525185 5.05661 0.252034 5.43238 0.111554 5.86358C-0.0289254 6.29478 -0.0295472 6.75934 0.109778 7.19092C0.249102 7.62249 0.521247 7.999 0.88734 8.26666H0.884673Z" fill="black"/>
</svg>
